<mxfile host="Electron" modified="2023-10-02T05:51:59.485Z" agent="Mozilla/5.0 (Windows NT 10.0; Win64; x64) AppleWebKit/537.36 (KHTML, like Gecko) draw.io/21.7.5 Chrome/114.0.5735.289 Electron/25.8.1 Safari/537.36" etag="D8IaU8ajwmBLrB8gT5o2" version="21.7.5" type="device">
  <diagram id="C5RBs43oDa-KdzZeNtuy" name="Page-1">
    <mxGraphModel dx="782" dy="1699" grid="1" gridSize="10" guides="1" tooltips="1" connect="1" arrows="1" fold="1" page="1" pageScale="1" pageWidth="827" pageHeight="1169" math="0" shadow="0">
      <root>
        <mxCell id="WIyWlLk6GJQsqaUBKTNV-0" />
        <mxCell id="WIyWlLk6GJQsqaUBKTNV-1" parent="WIyWlLk6GJQsqaUBKTNV-0" />
        <mxCell id="_Kv_LYZ9CVoAIaad1dvz-2" value="组件" style="shape=umlFrame;whiteSpace=wrap;html=1;pointerEvents=0;recursiveResize=0;container=1;collapsible=0;width=160;" parent="WIyWlLk6GJQsqaUBKTNV-1" vertex="1">
          <mxGeometry x="50" y="270" width="370" height="410" as="geometry" />
        </mxCell>
        <mxCell id="_Kv_LYZ9CVoAIaad1dvz-0" value="属性" style="html=1;whiteSpace=wrap;" parent="_Kv_LYZ9CVoAIaad1dvz-2" vertex="1">
          <mxGeometry x="80" y="150" width="110" height="50" as="geometry" />
        </mxCell>
        <mxCell id="_Kv_LYZ9CVoAIaad1dvz-1" value="技能" style="html=1;whiteSpace=wrap;" parent="_Kv_LYZ9CVoAIaad1dvz-2" vertex="1">
          <mxGeometry x="80" y="70" width="110" height="50" as="geometry" />
        </mxCell>
        <mxCell id="_Kv_LYZ9CVoAIaad1dvz-5" value="状态" style="html=1;whiteSpace=wrap;" parent="_Kv_LYZ9CVoAIaad1dvz-2" vertex="1">
          <mxGeometry x="80" y="230" width="110" height="50" as="geometry" />
        </mxCell>
        <mxCell id="_Kv_LYZ9CVoAIaad1dvz-6" value="Object" style="html=1;whiteSpace=wrap;" parent="_Kv_LYZ9CVoAIaad1dvz-2" vertex="1">
          <mxGeometry x="80" y="315" width="110" height="50" as="geometry" />
        </mxCell>
        <mxCell id="_Kv_LYZ9CVoAIaad1dvz-4" value="EffectNodePools" style="shape=note2;boundedLbl=1;whiteSpace=wrap;html=1;size=25;verticalAlign=top;align=center;" parent="WIyWlLk6GJQsqaUBKTNV-1" vertex="1">
          <mxGeometry x="130" y="170" width="120" height="60" as="geometry" />
        </mxCell>
        <mxCell id="_Kv_LYZ9CVoAIaad1dvz-14" value="Effect Component" style="shape=umlFrame;whiteSpace=wrap;html=1;pointerEvents=0;recursiveResize=0;container=1;collapsible=0;width=160;" parent="WIyWlLk6GJQsqaUBKTNV-1" vertex="1">
          <mxGeometry x="480" y="270" width="920" height="550" as="geometry" />
        </mxCell>
        <mxCell id="_Kv_LYZ9CVoAIaad1dvz-13" style="edgeStyle=orthogonalEdgeStyle;rounded=0;orthogonalLoop=1;jettySize=auto;html=1;" parent="_Kv_LYZ9CVoAIaad1dvz-14" source="_Kv_LYZ9CVoAIaad1dvz-7" target="_Kv_LYZ9CVoAIaad1dvz-9" edge="1">
          <mxGeometry relative="1" as="geometry">
            <mxPoint x="125" y="80" as="sourcePoint" />
          </mxGeometry>
        </mxCell>
        <mxCell id="_Kv_LYZ9CVoAIaad1dvz-9" value="EffectLifeNode Trait" style="swimlane;fontStyle=1;align=center;verticalAlign=top;childLayout=stackLayout;horizontal=1;startSize=26;horizontalStack=0;resizeParent=1;resizeParentMax=0;resizeLast=0;collapsible=1;marginBottom=0;whiteSpace=wrap;html=1;" parent="_Kv_LYZ9CVoAIaad1dvz-14" vertex="1">
          <mxGeometry x="65" y="280" width="160" height="86" as="geometry" />
        </mxCell>
        <mxCell id="_Kv_LYZ9CVoAIaad1dvz-10" value="+ field: type" style="text;strokeColor=none;fillColor=none;align=left;verticalAlign=top;spacingLeft=4;spacingRight=4;overflow=hidden;rotatable=0;points=[[0,0.5],[1,0.5]];portConstraint=eastwest;whiteSpace=wrap;html=1;" parent="_Kv_LYZ9CVoAIaad1dvz-9" vertex="1">
          <mxGeometry y="26" width="160" height="26" as="geometry" />
        </mxCell>
        <mxCell id="_Kv_LYZ9CVoAIaad1dvz-11" value="" style="line;strokeWidth=1;fillColor=none;align=left;verticalAlign=middle;spacingTop=-1;spacingLeft=3;spacingRight=3;rotatable=0;labelPosition=right;points=[];portConstraint=eastwest;strokeColor=inherit;" parent="_Kv_LYZ9CVoAIaad1dvz-9" vertex="1">
          <mxGeometry y="52" width="160" height="8" as="geometry" />
        </mxCell>
        <mxCell id="_Kv_LYZ9CVoAIaad1dvz-12" value="+ method(type): type" style="text;strokeColor=none;fillColor=none;align=left;verticalAlign=top;spacingLeft=4;spacingRight=4;overflow=hidden;rotatable=0;points=[[0,0.5],[1,0.5]];portConstraint=eastwest;whiteSpace=wrap;html=1;" parent="_Kv_LYZ9CVoAIaad1dvz-9" vertex="1">
          <mxGeometry y="60" width="160" height="26" as="geometry" />
        </mxCell>
        <mxCell id="_Kv_LYZ9CVoAIaad1dvz-7" value="EffectNode trait" style="html=1;whiteSpace=wrap;" parent="_Kv_LYZ9CVoAIaad1dvz-14" vertex="1">
          <mxGeometry x="90" y="190" width="110" height="50" as="geometry" />
        </mxCell>
        <mxCell id="_Kv_LYZ9CVoAIaad1dvz-16" value="Effect Node Builder" style="html=1;whiteSpace=wrap;" parent="_Kv_LYZ9CVoAIaad1dvz-14" vertex="1">
          <mxGeometry x="75" y="40" width="140" height="50" as="geometry" />
        </mxCell>
        <mxCell id="_Kv_LYZ9CVoAIaad1dvz-17" value="node 中引用其他组件。例如另一个组件。总可以通过entity进行查询。&lt;br&gt;&lt;br&gt;&lt;br&gt;使用guid或者entity或者自增id，来表示Node 的Id" style="shape=note2;boundedLbl=1;whiteSpace=wrap;html=1;size=25;verticalAlign=top;align=center;" parent="_Kv_LYZ9CVoAIaad1dvz-14" vertex="1">
          <mxGeometry x="300" y="60" width="120" height="230" as="geometry" />
        </mxCell>
        <mxCell id="_Kv_LYZ9CVoAIaad1dvz-18" value="Effect Node Schema" style="html=1;whiteSpace=wrap;" parent="_Kv_LYZ9CVoAIaad1dvz-14" vertex="1">
          <mxGeometry x="75" y="110" width="140" height="50" as="geometry" />
        </mxCell>
        <mxCell id="_Kv_LYZ9CVoAIaad1dvz-19" value="Effect Node Context" style="html=1;whiteSpace=wrap;" parent="_Kv_LYZ9CVoAIaad1dvz-14" vertex="1">
          <mxGeometry x="90" y="400" width="110" height="50" as="geometry" />
        </mxCell>
        <mxCell id="_Kv_LYZ9CVoAIaad1dvz-20" value="Effect Node Event Manager" style="html=1;whiteSpace=wrap;" parent="_Kv_LYZ9CVoAIaad1dvz-14" vertex="1">
          <mxGeometry x="90" y="480" width="110" height="50" as="geometry" />
        </mxCell>
        <mxCell id="CBVFbIwDwmJJxsSD5G-e-2" style="edgeStyle=orthogonalEdgeStyle;rounded=0;orthogonalLoop=1;jettySize=auto;html=1;entryX=0;entryY=0.75;entryDx=0;entryDy=0;" parent="_Kv_LYZ9CVoAIaad1dvz-14" source="CBVFbIwDwmJJxsSD5G-e-0" target="CBVFbIwDwmJJxsSD5G-e-1" edge="1">
          <mxGeometry relative="1" as="geometry" />
        </mxCell>
        <mxCell id="CBVFbIwDwmJJxsSD5G-e-0" value="state end" style="rounded=0;whiteSpace=wrap;html=1;" parent="_Kv_LYZ9CVoAIaad1dvz-14" vertex="1">
          <mxGeometry x="480" y="180" width="120" height="130" as="geometry" />
        </mxCell>
        <mxCell id="CBVFbIwDwmJJxsSD5G-e-1" value="buff jump" style="rounded=0;whiteSpace=wrap;html=1;" parent="_Kv_LYZ9CVoAIaad1dvz-14" vertex="1">
          <mxGeometry x="730" y="150" width="120" height="130" as="geometry" />
        </mxCell>
        <mxCell id="CBVFbIwDwmJJxsSD5G-e-7" value="entity&lt;br&gt;exec name&amp;nbsp;&lt;br&gt;pin name&lt;br&gt;pin value" style="rounded=0;whiteSpace=wrap;html=1;" parent="_Kv_LYZ9CVoAIaad1dvz-14" vertex="1">
          <mxGeometry x="520" y="440" width="120" height="60" as="geometry" />
        </mxCell>
        <mxCell id="CBVFbIwDwmJJxsSD5G-e-8" value="entity&lt;br style=&quot;border-color: var(--border-color);&quot;&gt;exec name&amp;nbsp;&lt;br style=&quot;border-color: var(--border-color);&quot;&gt;pin name" style="rounded=0;whiteSpace=wrap;html=1;" parent="_Kv_LYZ9CVoAIaad1dvz-14" vertex="1">
          <mxGeometry x="750" y="440" width="120" height="60" as="geometry" />
        </mxCell>
        <mxCell id="CBVFbIwDwmJJxsSD5G-e-3" value="get loop index" style="rounded=0;whiteSpace=wrap;html=1;" parent="WIyWlLk6GJQsqaUBKTNV-1" vertex="1">
          <mxGeometry x="1490" y="490" width="120" height="130" as="geometry" />
        </mxCell>
        <mxCell id="CBVFbIwDwmJJxsSD5G-e-4" style="edgeStyle=orthogonalEdgeStyle;rounded=0;orthogonalLoop=1;jettySize=auto;html=1;" parent="WIyWlLk6GJQsqaUBKTNV-1" source="CBVFbIwDwmJJxsSD5G-e-1" target="CBVFbIwDwmJJxsSD5G-e-3" edge="1">
          <mxGeometry relative="1" as="geometry" />
        </mxCell>
        <mxCell id="CBVFbIwDwmJJxsSD5G-e-13" value="outpu pin how to get input pin value" style="text;html=1;align=center;verticalAlign=middle;resizable=0;points=[];autosize=1;strokeColor=none;fillColor=none;" parent="WIyWlLk6GJQsqaUBKTNV-1" vertex="1">
          <mxGeometry x="975" y="868" width="210" height="30" as="geometry" />
        </mxCell>
        <mxCell id="8rTkKtt7ReHy9oeQCh9l-0" value="创建一个Graph" style="rounded=0;whiteSpace=wrap;html=1;" parent="WIyWlLk6GJQsqaUBKTNV-1" vertex="1">
          <mxGeometry x="30" y="980" width="120" height="60" as="geometry" />
        </mxCell>
        <mxCell id="8rTkKtt7ReHy9oeQCh9l-1" value="根据graph，去创建组节点，" style="rounded=0;whiteSpace=wrap;html=1;" parent="WIyWlLk6GJQsqaUBKTNV-1" vertex="1">
          <mxGeometry x="180" y="980" width="120" height="60" as="geometry" />
        </mxCell>
        <mxCell id="JcgAhb9mH9dsPO-IHmUR-5" style="edgeStyle=orthogonalEdgeStyle;rounded=0;orthogonalLoop=1;jettySize=auto;html=1;entryX=0.5;entryY=0;entryDx=0;entryDy=0;" edge="1" parent="WIyWlLk6GJQsqaUBKTNV-1" source="JcgAhb9mH9dsPO-IHmUR-0" target="JcgAhb9mH9dsPO-IHmUR-2">
          <mxGeometry relative="1" as="geometry">
            <Array as="points">
              <mxPoint x="100" y="-370" />
              <mxPoint x="620" y="-370" />
            </Array>
          </mxGeometry>
        </mxCell>
        <mxCell id="JcgAhb9mH9dsPO-IHmUR-0" value="单位" style="rounded=0;whiteSpace=wrap;html=1;" vertex="1" parent="WIyWlLk6GJQsqaUBKTNV-1">
          <mxGeometry x="40" y="-250" width="120" height="60" as="geometry" />
        </mxCell>
        <mxCell id="JcgAhb9mH9dsPO-IHmUR-4" style="edgeStyle=orthogonalEdgeStyle;rounded=0;orthogonalLoop=1;jettySize=auto;html=1;" edge="1" parent="WIyWlLk6GJQsqaUBKTNV-1" source="JcgAhb9mH9dsPO-IHmUR-1" target="JcgAhb9mH9dsPO-IHmUR-2">
          <mxGeometry relative="1" as="geometry" />
        </mxCell>
        <mxCell id="JcgAhb9mH9dsPO-IHmUR-1" value="中转：&lt;br&gt;1. 收集单位信息，构建效果图&lt;br&gt;2. 转发单位的事件到效果图&lt;br&gt;3. 检测是否可以释放技能" style="rounded=0;whiteSpace=wrap;html=1;" vertex="1" parent="WIyWlLk6GJQsqaUBKTNV-1">
          <mxGeometry x="260" y="-260" width="120" height="80" as="geometry" />
        </mxCell>
        <mxCell id="JcgAhb9mH9dsPO-IHmUR-2" value="效果图" style="rounded=0;whiteSpace=wrap;html=1;" vertex="1" parent="WIyWlLk6GJQsqaUBKTNV-1">
          <mxGeometry x="560" y="-250" width="120" height="60" as="geometry" />
        </mxCell>
        <mxCell id="JcgAhb9mH9dsPO-IHmUR-3" value="" style="endArrow=classic;html=1;rounded=0;" edge="1" parent="WIyWlLk6GJQsqaUBKTNV-1" source="JcgAhb9mH9dsPO-IHmUR-0" target="JcgAhb9mH9dsPO-IHmUR-1">
          <mxGeometry width="50" height="50" relative="1" as="geometry">
            <mxPoint x="230" y="-230" as="sourcePoint" />
            <mxPoint x="280" y="-280" as="targetPoint" />
          </mxGeometry>
        </mxCell>
        <mxCell id="JcgAhb9mH9dsPO-IHmUR-9" style="edgeStyle=orthogonalEdgeStyle;rounded=0;orthogonalLoop=1;jettySize=auto;html=1;entryX=0;entryY=0.75;entryDx=0;entryDy=0;" edge="1" parent="WIyWlLk6GJQsqaUBKTNV-1" source="JcgAhb9mH9dsPO-IHmUR-6" target="JcgAhb9mH9dsPO-IHmUR-2">
          <mxGeometry relative="1" as="geometry" />
        </mxCell>
        <mxCell id="JcgAhb9mH9dsPO-IHmUR-6" value="玩家" style="rounded=0;whiteSpace=wrap;html=1;" vertex="1" parent="WIyWlLk6GJQsqaUBKTNV-1">
          <mxGeometry x="220" y="-50" width="120" height="60" as="geometry" />
        </mxCell>
        <mxCell id="JcgAhb9mH9dsPO-IHmUR-8" style="edgeStyle=orthogonalEdgeStyle;rounded=0;orthogonalLoop=1;jettySize=auto;html=1;" edge="1" parent="WIyWlLk6GJQsqaUBKTNV-1" source="JcgAhb9mH9dsPO-IHmUR-7" target="JcgAhb9mH9dsPO-IHmUR-2">
          <mxGeometry relative="1" as="geometry" />
        </mxCell>
        <mxCell id="JcgAhb9mH9dsPO-IHmUR-7" value="其他" style="rounded=0;whiteSpace=wrap;html=1;" vertex="1" parent="WIyWlLk6GJQsqaUBKTNV-1">
          <mxGeometry x="560" y="-50" width="120" height="60" as="geometry" />
        </mxCell>
        <mxCell id="JcgAhb9mH9dsPO-IHmUR-10" value="死亡&lt;br&gt;移动打断&lt;br&gt;播放动画&lt;br&gt;被眩晕&lt;br&gt;技能cd中&lt;br&gt;中断技能" style="text;html=1;align=center;verticalAlign=middle;resizable=0;points=[];autosize=1;strokeColor=none;fillColor=none;" vertex="1" parent="WIyWlLk6GJQsqaUBKTNV-1">
          <mxGeometry x="205" y="-407" width="70" height="100" as="geometry" />
        </mxCell>
        <mxCell id="JcgAhb9mH9dsPO-IHmUR-13" value="1. 中转处添加中断检测。如何在图中处理，entry node, 添加几个不同的exec pin。执行，中断等。" style="text;html=1;align=center;verticalAlign=middle;resizable=0;points=[];autosize=1;strokeColor=none;fillColor=none;" vertex="1" parent="WIyWlLk6GJQsqaUBKTNV-1">
          <mxGeometry x="520" y="-432" width="540" height="30" as="geometry" />
        </mxCell>
        <mxCell id="JcgAhb9mH9dsPO-IHmUR-14" value="1. 技能和effect的区别&lt;br&gt;都可以给某个人，从某个人身上删除，区别在是否定时删除。&lt;br&gt;2. 区别主动技能和被动技能&lt;br&gt;主动释放时激活，被动技能给与时激活，时长无限。" style="text;html=1;align=center;verticalAlign=middle;resizable=0;points=[];autosize=1;strokeColor=none;fillColor=none;" vertex="1" parent="WIyWlLk6GJQsqaUBKTNV-1">
          <mxGeometry x="670" y="-335" width="350" height="70" as="geometry" />
        </mxCell>
        <mxCell id="JcgAhb9mH9dsPO-IHmUR-15" value="1. 时长&lt;br&gt;2. 如何激活状态&lt;br&gt;3. 触发条件检测&lt;br&gt;4. 中断条件检测&lt;br&gt;5. 消耗&lt;br&gt;6. 后触发效果&lt;br&gt;7. 键位绑定&lt;br&gt;8.&amp;nbsp;" style="text;html=1;align=center;verticalAlign=middle;resizable=0;points=[];autosize=1;strokeColor=none;fillColor=none;" vertex="1" parent="WIyWlLk6GJQsqaUBKTNV-1">
          <mxGeometry x="780" y="-260" width="110" height="130" as="geometry" />
        </mxCell>
        <mxCell id="JcgAhb9mH9dsPO-IHmUR-16" value="Classname" style="swimlane;fontStyle=0;childLayout=stackLayout;horizontal=1;startSize=26;fillColor=none;horizontalStack=0;resizeParent=1;resizeParentMax=0;resizeLast=0;collapsible=1;marginBottom=0;whiteSpace=wrap;html=1;" vertex="1" parent="WIyWlLk6GJQsqaUBKTNV-1">
          <mxGeometry x="1045" y="-636" width="315" height="102" as="geometry" />
        </mxCell>
        <mxCell id="JcgAhb9mH9dsPO-IHmUR-17" value="启动&lt;span style=&quot;white-space: pre;&quot;&gt;&#x9;&lt;/span&gt;&amp;nbsp;-》 是否可以激活，激活节点" style="text;strokeColor=none;fillColor=none;align=left;verticalAlign=top;spacingLeft=4;spacingRight=4;overflow=hidden;rotatable=0;points=[[0,0.5],[1,0.5]];portConstraint=eastwest;whiteSpace=wrap;html=1;" vertex="1" parent="JcgAhb9mH9dsPO-IHmUR-16">
          <mxGeometry y="26" width="315" height="24" as="geometry" />
        </mxCell>
        <mxCell id="JcgAhb9mH9dsPO-IHmUR-18" value="激活" style="text;strokeColor=none;fillColor=none;align=left;verticalAlign=top;spacingLeft=4;spacingRight=4;overflow=hidden;rotatable=0;points=[[0,0.5],[1,0.5]];portConstraint=eastwest;whiteSpace=wrap;html=1;" vertex="1" parent="JcgAhb9mH9dsPO-IHmUR-16">
          <mxGeometry y="50" width="315" height="26" as="geometry" />
        </mxCell>
        <mxCell id="JcgAhb9mH9dsPO-IHmUR-19" value="中断" style="text;strokeColor=none;fillColor=none;align=left;verticalAlign=top;spacingLeft=4;spacingRight=4;overflow=hidden;rotatable=0;points=[[0,0.5],[1,0.5]];portConstraint=eastwest;whiteSpace=wrap;html=1;" vertex="1" parent="JcgAhb9mH9dsPO-IHmUR-16">
          <mxGeometry y="76" width="315" height="26" as="geometry" />
        </mxCell>
        <mxCell id="JcgAhb9mH9dsPO-IHmUR-20" value="技能或者effect&lt;br&gt;1. 启动条件检测（如果没有实现，默认成功）&lt;br&gt;2. 激活条件检测&lt;br&gt;3. 中断条件检测 =》中断已有节点以及中断逻辑执行" style="html=1;whiteSpace=wrap;" vertex="1" parent="WIyWlLk6GJQsqaUBKTNV-1">
          <mxGeometry x="845" y="-687" width="175" height="206" as="geometry" />
        </mxCell>
        <mxCell id="JcgAhb9mH9dsPO-IHmUR-21" value="初始化技能。" style="html=1;whiteSpace=wrap;" vertex="1" parent="WIyWlLk6GJQsqaUBKTNV-1">
          <mxGeometry x="640" y="-620" width="120" height="50" as="geometry" />
        </mxCell>
        <mxCell id="JcgAhb9mH9dsPO-IHmUR-22" value="1.&amp;nbsp; 如何移动打断，监听到移动状态改变。&lt;br&gt;&lt;br&gt;&lt;br&gt;&lt;br&gt;2. 如何检测角色状态，打断技能或者Effect。&lt;br&gt;检测component，changed，判断是否符合条件。" style="text;html=1;align=center;verticalAlign=middle;resizable=0;points=[];autosize=1;strokeColor=none;fillColor=none;" vertex="1" parent="WIyWlLk6GJQsqaUBKTNV-1">
          <mxGeometry x="1010" y="-255" width="280" height="100" as="geometry" />
        </mxCell>
      </root>
    </mxGraphModel>
  </diagram>
</mxfile>
